<svg width="25" height="25" viewBox="0 0 25 25" fill="none" xmlns="http://www.w3.org/2000/svg">
<g clip-path="url(#clip0_45_1330)">
<path d="M12.1641 24.3307C11.8718 24.3307 11.5797 24.2194 11.3568 23.9965C10.9109 23.5506 10.911 22.8279 11.3569 22.3818L21.0444 12.6939C22.1226 11.6157 22.7165 10.1822 22.7165 8.6574C22.7165 7.13259 22.1228 5.69909 21.0444 4.62087C18.8187 2.39518 15.1972 2.39532 12.9715 4.62087L3.28364 14.3087C1.94839 15.6442 1.94853 17.817 3.28389 19.1526C4.61939 20.488 6.79239 20.4878 8.12764 19.1526L17.008 10.272C17.4533 9.82688 17.4533 9.10266 17.0082 8.6574C16.5631 8.21228 15.8388 8.21228 15.3935 8.65754L9.58619 14.4648C9.14034 14.9107 8.41739 14.9106 7.97154 14.4648C7.52574 14.019 7.52574 13.2961 7.97154 12.8502L13.7789 7.04299C15.1141 5.70744 17.2872 5.70729 18.6227 7.0427C19.9582 8.37854 19.9582 10.5515 18.6226 11.8868L9.74215 20.7671C8.62945 21.8798 7.16724 22.4362 5.70562 22.4364C4.2437 22.4366 2.78218 21.8801 1.66928 20.7671C-0.556355 18.5416 -0.556403 14.9199 1.66899 12.6941L11.3569 3.00631C14.4731 -0.109615 19.543 -0.109761 22.659 3.00631C24.1685 4.51579 25 6.52268 25 8.6574C24.9997 10.7921 24.1685 12.7992 22.6589 14.3085L12.9713 23.9965C12.7484 24.2193 12.4563 24.3307 12.1641 24.3307Z" fill="currentColor"/>
<path d="M17.0081 8.6574C17.4532 9.10267 17.4532 9.82689 17.008 10.272L8.12752 19.1525C7.412 19.868 6.45584 20.1998 5.51692 20.1483L3.6217 22.0436C4.28992 22.3046 4.99754 22.4363 5.7056 22.4363C7.16722 22.4361 8.62943 21.8797 9.74213 20.767L18.6226 11.8867C19.9581 10.5514 19.9581 8.37845 18.6227 7.0426L17.008 8.65735C17.0081 8.6574 17.0081 8.6574 17.0081 8.6574Z" fill="currentColor"/>
<path d="M22.6589 14.3085C24.1685 12.7992 24.9997 10.7922 25 8.65743C25 6.52271 24.1685 4.51582 22.6591 3.00635L21.0444 4.62085C22.1227 5.69908 22.7165 7.13258 22.7165 8.65738C22.7165 10.1822 22.1226 11.6157 21.0444 12.6939L11.3568 22.3819C10.911 22.8279 10.9109 23.5506 11.3567 23.9965C11.5797 24.2195 11.8719 24.3308 12.1641 24.3308C12.4563 24.3308 12.7484 24.2193 12.9712 23.9965L22.6589 14.3085Z" fill="currentColor"/>
</g>
<defs>
<clipPath id="clip0_45_1330">
<rect width="25" height="25" fill="white"/>
</clipPath>
</defs>
</svg>
