<svg viewBox="0 0 30 30" fill="none" xmlns="http://www.w3.org/2000/svg">
<path d="M25.0266 3.75H4.97344C4.46437 3.7504 3.96635 3.89856 3.53984 4.17649C3.11333 4.45441 2.77665 4.85017 2.57068 5.31571C2.36471 5.78126 2.29829 6.29658 2.3795 6.79914C2.4607 7.3017 2.68602 7.76988 3.02813 8.14687L11.7188 17.7047V26.7188C11.7188 26.895 11.7686 27.0676 11.8623 27.2168C11.9559 27.366 12.0898 27.4859 12.2484 27.5625C12.3752 27.625 12.5149 27.6571 12.6563 27.6562C12.8693 27.6561 13.076 27.5833 13.2422 27.45L15 26.0438L17.9297 23.7C18.0393 23.6122 18.1278 23.5009 18.1887 23.3744C18.2495 23.2478 18.2812 23.1092 18.2813 22.9688V17.7047L26.9719 8.14687C27.314 7.76988 27.5393 7.3017 27.6205 6.79914C27.7017 6.29658 27.6353 5.78126 27.4293 5.31571C27.2234 4.85017 26.8867 4.45441 26.4602 4.17649C26.0337 3.89856 25.5356 3.7504 25.0266 3.75Z" fill="currentColor"/>
</svg>
