<svg width="22" height="22" viewBox="0 0 22 22" fill="none" xmlns="http://www.w3.org/2000/svg">
<g clip-path="url(#clip0_48_410)">
<path d="M20.1667 6.41675H1.83335C0.822207 6.41675 0 7.239 0 8.2501V13.7501C0 14.7612 0.822207 15.5834 1.83335 15.5834H20.1667C21.1778 15.5834 22 14.7612 22 13.7501V8.2501C22 7.239 21.1778 6.41675 20.1667 6.41675ZM21.0833 13.7501C21.0833 14.2554 20.672 14.6667 20.1667 14.6667H1.83335C1.32804 14.6667 0.916695 14.2554 0.916695 13.7501V8.2501C0.916695 7.74478 1.32804 7.33344 1.83335 7.33344H20.1667C20.672 7.33344 21.0833 7.74478 21.0833 8.2501V13.7501Z" fill="currentColor"/>
<path d="M5.71258 10.0834C5.58548 9.86323 5.30395 9.78937 5.0864 9.91561L4.58332 10.2061V9.6251C4.58332 9.37175 4.37831 9.16675 4.12497 9.16675C3.87163 9.16675 3.66662 9.37175 3.66662 9.6251V10.2061L3.16354 9.91561C2.94466 9.78937 2.66403 9.86323 2.53736 10.0834C2.41069 10.3028 2.48588 10.583 2.7052 10.7096L3.20823 11.0001L2.7052 11.2906C2.48588 11.4172 2.41069 11.6974 2.53736 11.9167C2.6224 12.064 2.7764 12.1459 2.93482 12.1459C3.01272 12.1459 3.09149 12.1262 3.16354 12.0846L3.66662 11.7941V12.3751C3.66662 12.6284 3.87163 12.8334 4.12497 12.8334C4.37831 12.8334 4.58332 12.6284 4.58332 12.3751V11.7941L5.0864 12.0846C5.15845 12.1262 5.23722 12.1459 5.31512 12.1459C5.47359 12.1459 5.62754 12.064 5.71258 11.9167C5.83925 11.6974 5.76406 11.4172 5.54474 11.2906L5.04171 11.0001L5.54474 10.7096C5.76406 10.583 5.83925 10.3028 5.71258 10.0834Z" fill="currentColor"/>
<path d="M10.296 10.0834C10.1684 9.86323 9.88775 9.78937 9.66977 9.91561L9.16669 10.2061V9.6251C9.16669 9.37175 8.96169 9.16675 8.70834 9.16675C8.455 9.16675 8.25 9.37175 8.25 9.6251V10.2061L7.74692 9.91561C7.52761 9.78937 7.24698 9.86323 7.12073 10.0834C6.99406 10.3028 7.06926 10.583 7.28857 10.7096L7.79161 11.0001L7.28857 11.2906C7.06926 11.4172 6.99406 11.6974 7.12073 11.9167C7.20577 12.064 7.35977 12.1459 7.5182 12.1459C7.5961 12.1459 7.67486 12.1262 7.74692 12.0846L8.25 11.7941V12.3751C8.25 12.6284 8.455 12.8334 8.70834 12.8334C8.96169 12.8334 9.16669 12.6284 9.16669 12.3751V11.7941L9.66977 12.0846C9.74183 12.1262 9.82059 12.1459 9.89849 12.1459C10.057 12.1459 10.2109 12.064 10.296 11.9167C10.4226 11.6974 10.3474 11.4172 10.1281 11.2906L9.62504 11.0001L10.1281 10.7096C10.3474 10.583 10.4226 10.3028 10.296 10.0834Z" fill="currentColor"/>
<path d="M14.8793 10.0834C14.7522 9.86323 14.4706 9.78937 14.2531 9.91561L13.75 10.2061V9.6251C13.75 9.37175 13.545 9.16675 13.2917 9.16675C13.0383 9.16675 12.8333 9.37175 12.8333 9.6251V10.2061L12.3302 9.91561C12.1113 9.78937 11.8307 9.86323 11.704 10.0834C11.5774 10.3028 11.6526 10.583 11.8719 10.7096L12.3749 11.0001L11.8719 11.2906C11.6526 11.4172 11.5774 11.6974 11.704 11.9167C11.7891 12.064 11.9431 12.1459 12.1015 12.1459C12.1794 12.1459 12.2582 12.1262 12.3302 12.0846L12.8333 11.7941V12.3751C12.8333 12.6284 13.0383 12.8334 13.2917 12.8334C13.545 12.8334 13.75 12.6284 13.75 12.3751V11.7941L14.2531 12.0846C14.3251 12.1262 14.4039 12.1459 14.4818 12.1459C14.6403 12.1459 14.7942 12.064 14.8793 11.9167C15.0059 11.6974 14.9307 11.4172 14.7114 11.2906L14.2084 11.0001L14.7114 10.7096C14.9307 10.583 15.0059 10.3028 14.8793 10.0834Z" fill="currentColor"/>
<path d="M19.4626 10.0834C19.336 9.86323 19.0544 9.78937 18.8365 9.91561L18.3334 10.2061V9.6251C18.3334 9.37175 18.1284 9.16675 17.875 9.16675C17.6217 9.16675 17.4167 9.37175 17.4167 9.6251V10.2061L16.9136 9.91561C16.6938 9.78937 16.4145 9.86323 16.2874 10.0834C16.1607 10.3028 16.2359 10.583 16.4553 10.7096L16.9583 11.0001L16.4553 11.2906C16.2359 11.4172 16.1607 11.6974 16.2874 11.9167C16.3725 12.064 16.5265 12.1459 16.6849 12.1459C16.7628 12.1459 16.8415 12.1262 16.9136 12.0846L17.4167 11.7941V12.3751C17.4167 12.6284 17.6217 12.8334 17.875 12.8334C18.1284 12.8334 18.3334 12.6284 18.3334 12.3751V11.7941L18.8365 12.0846C18.9085 12.1262 18.9873 12.1459 19.0652 12.1459C19.2236 12.1459 19.3776 12.064 19.4626 11.9167C19.5893 11.6974 19.5141 11.4172 19.2948 11.2906L18.7918 11.0001L19.2948 10.7096C19.5141 10.583 19.5893 10.3028 19.4626 10.0834Z" fill="currentColor"/>
</g>
<defs>
<clipPath id="clip0_48_410">
<rect width="22" height="22" fill="white"/>
</clipPath>
</defs>
</svg>
