<svg viewBox="0 0 23 23" fill="none" xmlns="http://www.w3.org/2000/svg">
<path d="M12.0502 5.38603C12.8935 4.46395 14.4275 5.11104 14.3557 6.35845C14.3105 7.14399 14.9546 7.79631 15.7406 7.76131C16.9888 7.70557 17.616 9.24788 16.6832 10.0792C16.0958 10.6027 16.0899 11.5194 16.6705 12.0504C17.5925 12.8937 16.9455 14.4278 15.6981 14.356C14.9126 14.3108 14.2602 14.9549 14.2953 15.7409C14.351 16.9891 12.8087 17.6164 11.9774 16.6835C11.4539 16.0961 10.5372 16.0902 10.0062 16.6708C9.16295 17.5928 7.62898 16.9458 7.70071 15.6984C7.74592 14.9129 7.10189 14.2605 6.31586 14.2956C5.06766 14.3513 4.44041 12.809 5.37326 11.9776C5.96066 11.4541 5.96657 10.5374 5.38596 10.0064C4.46391 9.16311 5.11098 7.6291 6.35836 7.70083C7.14388 7.74605 7.79627 7.102 7.76118 6.31595C7.70545 5.06771 9.24772 4.44045 10.0791 5.37332C10.6025 5.96074 11.5192 5.96665 12.0502 5.38603Z" fill="currentColor"/>
<path d="M16.6705 12.0504C16.0899 11.5194 16.0958 10.6027 16.6832 10.0792C17.4888 9.36125 17.1308 8.11304 16.2141 7.82187C16.3638 8.28531 16.2686 8.8291 15.8326 9.21762C15.2452 9.74112 15.2393 10.6578 15.8199 11.1888C16.742 12.0321 16.0949 13.5662 14.8475 13.4944C14.062 13.4492 13.4096 14.0932 13.4447 14.8793C13.5005 16.1275 11.9582 16.7548 11.1268 15.8219C10.6034 15.2344 9.6867 15.2285 9.15569 15.8092C8.76159 16.2401 8.21663 16.3283 7.75517 16.1727C8.03449 17.0931 9.27795 17.4672 10.0062 16.6708C10.5372 16.0901 11.4539 16.096 11.9774 16.6835C12.8087 17.6163 14.3509 16.9891 14.2953 15.7409C14.2602 14.9548 14.9126 14.3108 15.6981 14.356C16.9455 14.4277 17.5925 12.8937 16.6705 12.0504Z" fill="currentColor"/>
<path d="M16.6705 12.0504C16.0899 11.5194 16.0958 10.6027 16.6832 10.0792C17.398 9.44224 17.1968 8.38801 16.5023 7.95479C16.8147 8.46354 16.7921 9.17242 16.2579 9.64841C15.6705 10.1719 15.6646 11.0886 16.2452 11.6196C17.1673 12.4628 16.5202 13.9969 15.2728 13.9252C14.4873 13.88 13.8349 14.524 13.87 15.3101C13.9258 16.5583 12.3835 17.1856 11.5522 16.2527C11.0287 15.6652 10.112 15.6593 9.58099 16.24C9.09826 16.7679 8.38907 16.7814 7.8844 16.4625C8.30854 17.1627 9.36015 17.3773 10.0063 16.6708C10.5373 16.0901 11.4539 16.096 11.9774 16.6835C12.8088 17.6163 14.3509 16.9891 14.2953 15.7409C14.2602 14.9548 14.9126 14.3108 15.6981 14.356C16.9455 14.4277 17.5926 12.8937 16.6705 12.0504Z" fill="currentColor"/>
<path d="M13.1022 15.0342C15.3109 13.8893 16.1733 11.1707 15.0284 8.962C13.8836 6.75331 11.165 5.89091 8.95639 7.03579C6.74775 8.18066 5.88538 10.8993 7.03022 13.108C8.17507 15.3167 10.8936 16.179 13.1022 15.0342Z" fill="currentColor"/>
<path d="M11.0067 14.3726C12.8536 14.3845 14.3605 12.8969 14.3724 11.05C14.3843 9.20301 12.8967 7.69612 11.0498 7.68421C9.20292 7.67231 7.69606 9.1599 7.68415 11.0068C7.67225 12.8538 9.15981 14.3607 11.0067 14.3726Z" fill="currentColor"/>
<path d="M7.06011 11.1741C6.96508 11.1735 6.88939 11.0959 6.89 11.0017C6.89 11.0009 6.89 11.0009 6.89 11.0009C6.89147 10.9067 6.96815 10.831 7.06231 10.8316C7.15562 10.8322 7.23218 10.9089 7.23243 11.0031L7.23242 11.004C7.23182 11.0981 7.15427 11.1747 7.06011 11.1741ZM7.12271 10.493C7.11329 10.4929 7.10303 10.492 7.09362 10.4902C7.0483 10.4823 7.00908 10.4572 6.98279 10.4193C6.95734 10.3824 6.94736 10.3369 6.95536 10.2916C7.08853 9.55362 7.42171 8.86489 7.92018 8.29878C8.41348 7.73778 9.04712 7.3198 9.75402 7.09064C9.97965 7.01676 10.2137 6.96347 10.4493 6.92989C10.5419 6.91679 10.6296 6.98413 10.6427 7.07582C10.6558 7.16922 10.5902 7.25612 10.4968 7.26922C10.28 7.2995 10.0657 7.34948 9.85979 7.41579C8.52406 7.84893 7.54086 8.97438 7.29227 10.352C7.27718 10.4349 7.20575 10.4935 7.12271 10.493Z" fill="currentColor"/>
<path d="M11.2457 8.85658L11.6289 10.0625C11.657 10.1509 11.7388 10.2111 11.8315 10.2117L13.0203 10.2193C13.2517 10.2208 13.3459 10.5175 13.1579 10.6523L12.1916 11.3449C12.1163 11.3989 12.0842 11.4953 12.1123 11.5837L12.4955 12.7896C12.5583 12.9872 12.3316 13.1496 12.1647 13.0267L11.1604 12.2871C11.077 12.2258 10.9637 12.225 10.8796 12.2853L9.86581 13.0119C9.69732 13.1327 9.47272 12.9673 9.53802 12.7705L9.93674 11.5697C9.96599 11.4817 9.93519 11.3849 9.86055 11.3299L8.90328 10.6249C8.71693 10.4876 8.81506 10.1922 9.04646 10.1937L10.2353 10.2014C10.328 10.202 10.4105 10.1428 10.4397 10.0548L10.8384 8.85396C10.9041 8.65722 11.183 8.65901 11.2457 8.85658Z" fill="white"/>
<path d="M11.5348 1.88589L11.5224 3.80257C11.5208 4.04981 11.3191 4.24892 11.0719 4.24733C10.8247 4.24574 10.6256 4.04404 10.6272 3.7968L10.6395 1.88012C10.6411 1.63289 10.8428 1.43377 11.09 1.43537C11.3373 1.43696 11.5364 1.63874 11.5348 1.88589ZM10.9845 17.8095C10.7373 17.8079 10.5356 18.007 10.534 18.2543L10.5216 20.171C10.52 20.4182 10.7191 20.6199 10.9664 20.6215C11.2136 20.6231 11.4153 20.424 11.4169 20.1767L11.4292 18.26C11.4308 18.0128 11.2317 17.8111 10.9845 17.8095ZM20.1763 10.6397L18.2596 10.6274C18.0124 10.6258 17.8107 10.8249 17.8091 11.0721C17.8075 11.3194 18.0066 11.5211 18.2539 11.5227L20.1705 11.535C20.4177 11.5366 20.6194 11.3375 20.621 11.0903C20.6226 10.843 20.4234 10.6413 20.1763 10.6397ZM4.24736 10.9847C4.24896 10.7375 4.04984 10.5358 3.80262 10.5342L1.8859 10.5218C1.63867 10.5202 1.43697 10.7194 1.43538 10.9666C1.43379 11.2138 1.6329 11.4155 1.88013 11.4171L3.79676 11.4295C4.04399 11.4311 4.24577 11.232 4.24736 10.9847ZM16.4869 6.2685L17.169 5.5952L17.851 4.9219C18.0269 4.74821 18.0288 4.46476 17.8551 4.28882C17.6814 4.11289 17.398 4.11106 17.222 4.28474L15.858 5.63135C15.682 5.80504 15.6802 6.08849 15.8539 6.26442C16.0276 6.44036 16.311 6.44219 16.4869 6.2685ZM5.56946 15.7883L4.20541 17.1349C4.02948 17.3086 4.02765 17.5921 4.20133 17.768C4.37501 17.944 4.65845 17.9458 4.83439 17.7721L6.19843 16.4255C6.37437 16.2518 6.37619 15.9684 6.20251 15.7924C6.02883 15.6165 5.74539 15.6147 5.56946 15.7883ZM16.4251 15.8583C16.2515 15.6824 15.968 15.6805 15.7921 15.8542C15.6161 16.0279 15.6143 16.3114 15.788 16.4873L17.1346 17.8514C17.3083 18.0273 17.5917 18.0291 17.7676 17.8555C17.9436 17.6818 17.9454 17.3983 17.7717 17.2224L16.4251 15.8583ZM4.92183 4.20546C4.74815 4.02953 4.46471 4.0277 4.28877 4.20138C4.11284 4.37507 4.11101 4.65852 4.28469 4.83445L5.63127 6.19854C5.80495 6.37447 6.08839 6.3763 6.26432 6.20262C6.44026 6.02893 6.44208 5.74548 6.2684 5.56954L4.92183 4.20546Z" fill="currentColor"/>
<path d="M5.90586 15.6598C5.91021 15.7807 5.86585 15.9029 5.77306 15.9946L4.40901 17.3412C4.31613 17.4329 4.19326 17.4757 4.07251 17.4698C4.07643 17.578 4.11923 17.6849 4.20123 17.768C4.37491 17.9439 4.65835 17.9457 4.83428 17.772L6.19833 16.4254C6.37426 16.2518 6.37609 15.9683 6.20241 15.7924C6.12042 15.7093 6.01395 15.6651 5.90586 15.6598Z" fill="currentColor"/>
<path d="M17.4256 4.49106L16.0616 5.83767C15.9687 5.92936 15.8459 5.97215 15.7251 5.96615C15.729 6.0743 15.7718 6.18125 15.8538 6.26439C16.0275 6.44033 16.3109 6.44216 16.4869 6.26847L17.8509 4.92186C18.0269 4.74818 18.0287 4.46473 17.855 4.28879C17.773 4.20573 17.6665 4.16147 17.5585 4.15615C17.5628 4.27715 17.5185 4.39937 17.4256 4.49106Z" fill="currentColor"/>
<path d="M5.84304 5.13872C6.01672 5.31466 6.01489 5.59811 5.83896 5.77179C5.66302 5.94548 5.37958 5.94365 5.2059 5.76771L5.63117 6.19851C5.80485 6.37445 6.08829 6.37628 6.26423 6.20259C6.44016 6.02891 6.44199 5.74546 6.26831 5.56952L5.84304 5.13872Z" fill="currentColor"/>
<path d="M4.24729 10.9847C4.24884 10.7439 4.05998 10.5463 3.82172 10.5347C3.82193 10.541 3.82206 10.5475 3.82202 10.5539C3.82043 10.8011 3.61873 11.0002 3.3715 10.9986L1.45479 10.9863C1.44837 10.9863 1.44195 10.986 1.43561 10.9857C1.44409 11.2241 1.63925 11.4155 1.88006 11.4171L3.79669 11.4294C4.04392 11.431 4.2457 11.2319 4.24729 10.9847Z" fill="currentColor"/>
<path d="M17.3463 16.7916C17.52 16.9675 17.5182 17.2509 17.3423 17.4246C17.1663 17.5983 16.8829 17.5965 16.7092 17.4205L17.1345 17.8513C17.3081 18.0273 17.5916 18.0291 17.7675 17.8554C17.9435 17.6817 17.9453 17.3983 17.7716 17.2224L17.3463 16.7916Z" fill="currentColor"/>
<path d="M11.0036 17.81C11.0038 17.8163 11.004 17.8228 11.0039 17.8292L10.9916 19.7459C10.99 19.9931 10.7883 20.1922 10.5411 20.1906C10.5346 20.1906 10.5282 20.1904 10.5219 20.1901C10.5304 20.4285 10.7255 20.6199 10.9663 20.6214C11.2136 20.623 11.4153 20.4239 11.4169 20.1767L11.4292 18.26C11.4308 18.0192 11.2419 17.8216 11.0036 17.81Z" fill="currentColor"/>
<path d="M20.1954 10.6402C20.1956 10.6466 20.1958 10.653 20.1957 10.6594C20.1941 10.9067 19.9924 11.1058 19.7452 11.1042L17.8286 11.0918C17.8221 11.0918 17.8157 11.0916 17.8094 11.0913C17.8179 11.3297 18.013 11.5211 18.2538 11.5226L20.1705 11.535C20.4177 11.5366 20.6194 11.3375 20.621 11.0902C20.6225 10.8494 20.4337 10.6518 20.1954 10.6402Z" fill="currentColor"/>
<path d="M11.1091 1.43599C11.1093 1.44233 11.1094 1.44875 11.1094 1.45517L11.0971 3.37185C11.0955 3.61908 10.8938 3.8182 10.6465 3.8166C10.6401 3.81656 10.6337 3.81635 10.6274 3.81605C10.6358 4.05445 10.831 4.24585 11.0718 4.2474C11.319 4.249 11.5207 4.04988 11.5223 3.80264L11.5347 1.88588C11.5362 1.64515 11.3474 1.44754 11.1091 1.43599Z" fill="currentColor"/>
</svg>
